<svg width="13" height="13" viewBox="0 0 13 13" fill="none" xmlns="http://www.w3.org/2000/svg">
<path d="M10.3053 0.305288C10.3975 0.209778 10.5079 0.133596 10.6299 0.0811869C10.7519 0.0287779 10.8831 0.00119157 11.0159 3.77567e-05C11.1487 -0.00111606 11.2803 0.0241857 11.4032 0.0744666C11.5261 0.124747 11.6378 0.199001 11.7317 0.292893C11.8256 0.386786 11.8998 0.498438 11.9501 0.621334C12.0004 0.74423 12.0257 0.87591 12.0245 1.00869C12.0234 1.14147 11.9958 1.27269 11.9434 1.39469C11.891 1.5167 11.8148 1.62704 11.7193 1.71929L7.42629 6.01229L11.7193 10.3053C11.9014 10.4939 12.0022 10.7465 12 11.0087C11.9977 11.2709 11.8925 11.5217 11.7071 11.7071C11.5217 11.8925 11.2709 11.9977 11.0087 12C10.7465 12.0022 10.4939 11.9014 10.3053 11.7193L6.01229 7.42629L1.71929 11.7193C1.62704 11.8148 1.5167 11.891 1.39469 11.9434C1.27269 11.9958 1.14147 12.0234 1.00869 12.0245C0.87591 12.0257 0.74423 12.0004 0.621334 11.9501C0.498438 11.8998 0.386786 11.8256 0.292893 11.7317C0.199001 11.6378 0.124747 11.5261 0.0744666 11.4032C0.0241857 11.2803 -0.00111606 11.1487 3.77567e-05 11.0159C0.00119157 10.8831 0.0287779 10.7519 0.0811869 10.6299C0.133596 10.5079 0.209778 10.3975 0.305288 10.3053L4.59829 6.01229L0.305288 1.71929C0.209778 1.62704 0.133596 1.5167 0.0811869 1.39469C0.0287779 1.27269 0.00119157 1.14147 3.77567e-05 1.00869C-0.00111606 0.87591 0.0241857 0.74423 0.0744666 0.621334C0.124747 0.498438 0.199001 0.386786 0.292893 0.292893C0.386786 0.199001 0.498438 0.124747 0.621334 0.0744666C0.74423 0.0241857 0.87591 -0.00111606 1.00869 3.77567e-05C1.14147 0.00119157 1.27269 0.0287779 1.39469 0.0811869C1.5167 0.133596 1.62704 0.209778 1.71929 0.305288L6.01229 4.59829L10.3053 0.305288Z" fill="#D03737"/>
</svg>
