<svg width="30" height="30" viewBox="0 0 30 30" fill="none" xmlns="http://www.w3.org/2000/svg">
<path d="M5.29167 28.0417C3.98611 26.7361 3.33333 25.1667 3.33333 23.3333V9.70833C2.36111 9.34722 1.56278 8.74333 0.938333 7.89667C0.313889 7.05 0.00111111 6.08444 0 5C0 3.61111 0.486111 2.43056 1.45833 1.45833C2.43056 0.486111 3.61111 0 5 0C6.38889 0 7.56944 0.486111 8.54167 1.45833C9.51389 2.43056 10 3.61111 10 5C10 6.08333 9.68778 7.04889 9.06333 7.89667C8.43889 8.74444 7.64 9.34833 6.66667 9.70833V23.3333C6.66667 24.25 6.99333 25.035 7.64667 25.6883C8.3 26.3417 9.08444 26.6678 10 26.6667C10.9156 26.6656 11.7006 26.3394 12.355 25.6883C13.0094 25.0372 13.3356 24.2522 13.3333 23.3333V6.66667C13.3333 4.83333 13.9861 3.26389 15.2917 1.95833C16.5972 0.652778 18.1667 0 20 0C21.8333 0 23.4028 0.652778 24.7083 1.95833C26.0139 3.26389 26.6667 4.83333 26.6667 6.66667V20.2917C27.6389 20.6528 28.4378 21.2572 29.0633 22.105C29.6889 22.9528 30.0011 23.9178 30 25C30 26.3889 29.5139 27.5694 28.5417 28.5417C27.5694 29.5139 26.3889 30 25 30C23.6111 30 22.4306 29.5139 21.4583 28.5417C20.4861 27.5694 20 26.3889 20 25C20 23.9167 20.3128 22.9444 20.9383 22.0833C21.5639 21.2222 22.3622 20.625 23.3333 20.2917V6.66667C23.3333 5.75 23.0072 4.96556 22.355 4.31333C21.7028 3.66111 20.9178 3.33444 20 3.33333C19.0822 3.33222 18.2978 3.65889 17.6467 4.31333C16.9956 4.96778 16.6689 5.75222 16.6667 6.66667V23.3333C16.6667 25.1667 16.0139 26.7361 14.7083 28.0417C13.4028 29.3472 11.8333 30 10 30C8.16667 30 6.59722 29.3472 5.29167 28.0417ZM5 6.66667C5.47222 6.66667 5.86833 6.50667 6.18833 6.18667C6.50833 5.86667 6.66778 5.47111 6.66667 5C6.66555 4.52889 6.50555 4.13333 6.18667 3.81333C5.86778 3.49333 5.47222 3.33333 5 3.33333C4.52778 3.33333 4.13222 3.49333 3.81333 3.81333C3.49444 4.13333 3.33444 4.52889 3.33333 5C3.33222 5.47111 3.49222 5.86722 3.81333 6.18833C4.13444 6.50944 4.53 6.66889 5 6.66667ZM25 26.6667C25.4722 26.6667 25.8683 26.5067 26.1883 26.1867C26.5083 25.8667 26.6678 25.4711 26.6667 25C26.6656 24.5289 26.5056 24.1333 26.1867 23.8133C25.8678 23.4933 25.4722 23.3333 25 23.3333C24.5278 23.3333 24.1322 23.4933 23.8133 23.8133C23.4944 24.1333 23.3344 24.5289 23.3333 25C23.3322 25.4711 23.4922 25.8672 23.8133 26.1883C24.1344 26.5094 24.53 26.6689 25 26.6667Z" fill="#0B132B"/>
</svg>
