<svg width="27" height="30" viewBox="0 0 27 30" fill="none" xmlns="http://www.w3.org/2000/svg">
<path d="M9.657 25.407C9.219 25.344 9 25.125 9 24.75C9 24.325 9.219 23.969 9.657 23.682C10.095 23.395 10.626 23.251 11.25 23.25C11.874 23.249 12.4055 23.393 12.8445 23.682C13.2835 23.971 13.502 24.327 13.5 24.75C13.5 25.125 13.2815 25.344 12.8445 25.407C12.4075 25.47 11.876 25.501 11.25 25.5C10.624 25.499 10.093 25.468 9.657 25.407ZM21.657 28.407C21.219 28.344 21 28.125 21 27.75C21 27.325 21.219 26.969 21.657 26.682C22.095 26.395 22.626 26.251 23.25 26.25C23.874 26.249 24.4055 26.393 24.8445 26.682C25.2835 26.971 25.502 27.327 25.5 27.75C25.5 28.125 25.2815 28.344 24.8445 28.407C24.4075 28.47 23.876 28.501 23.25 28.5C22.624 28.499 22.093 28.468 21.657 28.407ZM14.157 28.407C13.719 28.344 13.5 28.125 13.5 27.75C13.5 27.325 13.719 26.969 14.157 26.682C14.595 26.395 15.126 26.251 15.75 26.25C16.374 26.249 16.9055 26.393 17.3445 26.682C17.7835 26.971 18.002 27.327 18 27.75C18 28.125 17.7815 28.344 17.3445 28.407C16.9075 28.47 16.376 28.501 15.75 28.5C15.124 28.499 14.593 28.468 14.157 28.407ZM2.157 28.407C1.719 28.344 1.5 28.125 1.5 27.75C1.5 27.325 1.719 26.969 2.157 26.682C2.595 26.395 3.126 26.251 3.75 26.25C4.374 26.249 4.9055 26.393 5.3445 26.682C5.7835 26.971 6.002 27.327 6 27.75C6 28.125 5.7815 28.344 5.3445 28.407C4.9075 28.47 4.376 28.501 3.75 28.5C3.124 28.499 2.593 28.468 2.157 28.407ZM8.157 29.907C7.719 29.844 7.5 29.625 7.5 29.25C7.5 28.825 7.719 28.469 8.157 28.182C8.595 27.895 9.126 27.751 9.75 27.75C10.374 27.749 10.9055 27.893 11.3445 28.182C11.7835 28.471 12.002 28.827 12 29.25C12 29.625 11.7815 29.844 11.3445 29.907C10.9075 29.97 10.376 30.001 9.75 30C9.124 29.999 8.593 29.968 8.157 29.907ZM4.5 21V21.75C4.5 22.375 4.2815 22.9065 3.8445 23.3445C3.4075 23.7825 2.876 24.001 2.25 24C1.624 23.999 1.093 23.7805 0.657 23.3445C0.221 22.9085 0.002 22.377 0 21.75V11.25C0 11 0.0249999 10.756 0.0749999 10.518C0.125 10.28 0.1875 10.0365 0.2625 9.78749L3.15 1.5C3.3 1.05 3.569 0.6875 3.957 0.4125C4.345 0.1375 4.776 0 5.25 0H21.75C22.225 0 22.6565 0.1375 23.0445 0.4125C23.4325 0.6875 23.701 1.05 23.85 1.5L26.7375 9.78749C26.8125 10.0375 26.875 10.2815 26.925 10.5195C26.975 10.7575 27 11.001 27 11.25V21.75C27 22.375 26.7815 22.9065 26.3445 23.3445C25.9075 23.7825 25.376 24.001 24.75 24C24.124 23.999 23.593 23.7805 23.157 23.3445C22.721 22.9085 22.502 22.377 22.5 21.75V21H4.5ZM4.2 7.49999H22.8L21.225 3H5.775L4.2 7.49999ZM6.75 16.5C7.375 16.5 7.9065 16.2815 8.3445 15.8445C8.7825 15.4075 9.001 14.876 9 14.25C8.999 13.624 8.7805 13.093 8.3445 12.657C7.9085 12.221 7.377 12.002 6.75 12C6.123 11.998 5.592 12.217 5.157 12.657C4.722 13.097 4.503 13.628 4.5 14.25C4.497 14.872 4.716 15.4035 5.157 15.8445C5.598 16.2855 6.129 16.504 6.75 16.5ZM20.25 16.5C20.875 16.5 21.4065 16.2815 21.8445 15.8445C22.2825 15.4075 22.501 14.876 22.5 14.25C22.499 13.624 22.2805 13.093 21.8445 12.657C21.4085 12.221 20.877 12.002 20.25 12C19.623 11.998 19.092 12.217 18.657 12.657C18.222 13.097 18.003 13.628 18 14.25C17.997 14.872 18.216 15.4035 18.657 15.8445C19.098 16.2855 19.629 16.504 20.25 16.5Z" fill="#0B132B"/>
</svg>
